<svg width="40" height="39" viewBox="0 0 40 39" fill="none" xmlns="http://www.w3.org/2000/svg">
<path d="M20 1.75H14.1666C12.6195 1.75 11.1358 2.36458 10.0419 3.45854C8.94789 4.55251 8.33331 6.03624 8.33331 7.58333C8.33331 9.13043 8.94789 10.6142 10.0419 11.7081C11.1358 12.8021 12.6195 13.4167 14.1666 13.4167M20 1.75V13.4167M20 1.75H25.8333C26.5994 1.75 27.3579 1.90088 28.0656 2.19404C28.7734 2.48719 29.4164 2.91687 29.9581 3.45854C30.4998 4.00022 30.9295 4.64328 31.2226 5.35101C31.5158 6.05875 31.6666 6.81729 31.6666 7.58333C31.6666 8.34938 31.5158 9.10792 31.2226 9.81565C30.9295 10.5234 30.4998 11.1664 29.9581 11.7081C29.4164 12.2498 28.7734 12.6795 28.0656 12.9726C27.3579 13.2658 26.5994 13.4167 25.8333 13.4167M20 13.4167H14.1666M20 13.4167H25.8333M20 13.4167V25.0833M14.1666 13.4167C12.6195 13.4167 11.1358 14.0312 10.0419 15.1252C8.94789 16.2192 8.33331 17.7029 8.33331 19.25C8.33331 20.7971 8.94789 22.2808 10.0419 23.3748C11.1358 24.4688 12.6195 25.0833 14.1666 25.0833M25.8333 13.4167C25.0673 13.4167 24.3087 13.5675 23.601 13.8607C22.8933 14.1539 22.2502 14.5835 21.7085 15.1252C21.1668 15.6669 20.7372 16.3099 20.444 17.0177C20.1509 17.7254 20 18.484 20 19.25C20 20.016 20.1509 20.7746 20.444 21.4823C20.7372 22.1901 21.1668 22.8331 21.7085 23.3748C22.2502 23.9165 22.8933 24.3461 23.601 24.6393C24.3087 24.9324 25.0673 25.0833 25.8333 25.0833C26.5994 25.0833 27.3579 24.9324 28.0656 24.6393C28.7734 24.3461 29.4164 23.9165 29.9581 23.3748C30.4998 22.8331 30.9295 22.1901 31.2226 21.4823C31.5158 20.7746 31.6666 20.016 31.6666 19.25C31.6666 18.484 31.5158 17.7254 31.2226 17.0177C30.9295 16.3099 30.4998 15.6669 29.9581 15.1252C29.4164 14.5835 28.7734 14.1539 28.0656 13.8607C27.3579 13.5675 26.5994 13.4167 25.8333 13.4167ZM14.1666 25.0833C12.6195 25.0833 11.1358 25.6979 10.0419 26.7919C8.94789 27.8858 8.33331 29.3696 8.33331 30.9167C8.33331 32.4638 8.94789 33.9475 10.0419 35.0415C11.1358 36.1354 12.6195 36.75 14.1666 36.75C15.7137 36.75 17.1975 36.1354 18.2914 35.0415C19.3854 33.9475 20 32.4638 20 30.9167V25.0833M14.1666 25.0833H20" stroke="#1E1E1E" stroke-width="3.5" stroke-linecap="round" stroke-linejoin="round"/>
</svg>
