<svg width="18" height="17" viewBox="0 0 18 17" fill="none" xmlns="http://www.w3.org/2000/svg">
<g clip-path="url(#clip0_205_639)">
<path d="M2.25 4.25008H3.75M3.75 4.25008H15.75M3.75 4.25008V14.1667C3.75 14.5425 3.90804 14.9028 4.18934 15.1685C4.47064 15.4342 4.85218 15.5834 5.25 15.5834H12.75C13.1478 15.5834 13.5294 15.4342 13.8107 15.1685C14.092 14.9028 14.25 14.5425 14.25 14.1667V4.25008M6 4.25008V2.83341C6 2.45769 6.15804 2.09736 6.43934 1.83168C6.72064 1.566 7.10218 1.41675 7.5 1.41675H10.5C10.8978 1.41675 11.2794 1.566 11.5607 1.83168C11.842 2.09736 12 2.45769 12 2.83341V4.25008" stroke="#1E1E1E" stroke-width="4" stroke-linecap="round" stroke-linejoin="round"/>
</g>
<defs>
<clipPath id="clip0_205_639">
<rect width="18" height="17" fill="white"/>
</clipPath>
</defs>
</svg>
